<?xml version="1.0" ?><svg id="Layer_1" style="enable-background:new 0 0 512 512;" version="1.1" viewBox="0 0 512 512" xml:space="preserve" xmlns="http://www.w3.org/2000/svg" xmlns:xlink="http://www.w3.org/1999/xlink"><style type="text/css">
	.st0{fill:#1EF6F6;}
	.st1{fill:#FDDD7B;}
	.st2{fill:#EAF3F2;}
	.st3{fill:#D4FF93;}
	.st4{fill:#FD535F;}
	.st5{stroke:#000000;stroke-width:2;stroke-linecap:round;stroke-linejoin:round;stroke-miterlimit:10;}
	.st6{fill:none;stroke:#000000;stroke-width:2;stroke-linecap:round;stroke-linejoin:round;stroke-miterlimit:10;}
	.st7{fill:#1EF6F6;stroke:#000000;stroke-width:2;stroke-linecap:round;stroke-linejoin:round;stroke-miterlimit:10;}
</style><g><g><path class="st2" d="M209.78,141.2l-0.03,139.84c-45.7,18.35-77.99,62.99-77.99,115.25c0,9.18,1,18.13,2.88,26.74    c7.48,34.11,28.97,62.96,58.14,80.24h132.88c29.04-22.74,54.59-67.23,54.59-106.98c0-51.95-31.86-96.54-77.13-115.09l0.03-140"/><path d="M325.65,511H192.78c-1.38,0-2.75-0.37-3.94-1.08c-31.44-18.62-53.95-49.69-61.74-85.23c-2.04-9.27-3.07-18.82-3.07-28.4    c0-52.4,30.44-99.08,77.99-120.37l0.03-134.73c0-4.26,3.46-7.72,7.73-7.72c0,0,0,0,0,0c4.27,0,7.72,3.46,7.72,7.73l-0.03,139.84    c0,3.15-1.92,5.99-4.85,7.17c-44.43,17.85-73.14,60.27-73.14,108.08c0,8.46,0.91,16.9,2.71,25.08    c6.73,30.7,25.9,57.61,52.74,74.17h127.99c24.41-20.24,49.59-61.04,49.59-99.25c0-47.56-28.39-89.93-72.33-107.94    c-2.91-1.19-4.8-4.01-4.8-7.15l0.03-140c0-4.27,3.46-7.73,7.73-7.73l0,0c4.27,0,7.73,3.46,7.73,7.73l-0.03,134.93    c47.03,21.45,77.13,68.06,77.13,120.17c0,44.64-28.95,90.66-57.56,113.06C329.05,510.42,327.38,511,325.65,511z"/></g><g><path class="st0" d="M324.02,141.2H187c-0.52,0-0.95-0.42-0.95-0.95v-23.34c0-0.52,0.42-0.95,0.95-0.95h137.02    c0.52,0,0.95,0.42,0.95,0.95v23.34C324.97,140.78,324.54,141.2,324.02,141.2z"/><path d="M317.66,148.93h-124.3c-8.29,0-15.04-6.75-15.04-15.04v-10.62c0-8.29,6.75-15.04,15.04-15.04h124.3    c8.29,0,15.04,6.75,15.04,15.04v10.62C332.7,142.18,325.95,148.93,317.66,148.93z M317.24,123.28l-123.88,0.42l0.42,10.2    l123.46-0.42V123.28z"/></g><g><path d="M190.01,429.74c-8.34,0-16.76-1.52-24.85-4.63l-35.89-13.77c-3.98-1.53-5.97-6-4.44-9.98c1.52-3.98,5.98-5.98,9.98-4.44    l35.89,13.77c18.78,7.21,39.82,3.4,54.88-9.97c17.83-15.82,42.14-21.32,65.06-14.72l89.17,25.69c4.1,1.18,6.47,5.46,5.28,9.56    c-1.18,4.09-5.42,6.48-9.57,5.29l-89.17-25.69c-17.79-5.12-36.67-0.85-50.51,11.43C222.93,423.73,206.62,429.74,190.01,429.74z"/></g><g><circle class="st4" cx="248.3" cy="301.02" r="15.45"/><path d="M248.3,324.2c-12.78,0-23.18-10.4-23.18-23.18s10.4-23.18,23.18-23.18c12.78,0,23.18,10.4,23.18,23.18    S261.08,324.2,248.3,324.2z M248.3,293.29c-4.26,0-7.73,3.47-7.73,7.73c0,4.26,3.47,7.73,7.73,7.73s7.73-3.47,7.73-7.73    C256.02,296.76,252.56,293.29,248.3,293.29z"/></g><g><circle class="st4" cx="256.8" cy="234.01" r="19.61"/><path d="M256.8,261.34c-15.07,0-27.33-12.26-27.33-27.34c0-15.07,12.26-27.33,27.33-27.33c15.07,0,27.33,12.26,27.33,27.33    C284.13,249.08,271.87,261.34,256.8,261.34z M256.8,222.13c-6.55,0-11.88,5.33-11.88,11.88c0,6.55,5.33,11.88,11.88,11.88    c6.55,0,11.88-5.33,11.88-11.88C268.68,227.46,263.35,222.13,256.8,222.13z"/></g><g><circle class="st4" cx="279.46" cy="69.5" r="18.26"/><path d="M279.46,95.48c-14.33,0-25.99-11.66-25.99-25.98c0-14.33,11.66-25.99,25.99-25.99c14.32,0,25.98,11.66,25.98,25.99    C305.44,83.83,293.78,95.48,279.46,95.48z M279.46,58.97c-5.81,0-10.53,4.72-10.53,10.53c0,5.8,4.72,10.53,10.53,10.53    c5.8,0,10.53-4.72,10.53-10.53C289.99,63.69,285.26,58.97,279.46,58.97z"/></g><g><circle class="st4" cx="223.19" cy="23.53" r="14.81"/><path d="M223.19,46.07c-12.42,0-22.53-10.11-22.53-22.53S210.76,1,223.19,1s22.53,10.11,22.53,22.53S235.61,46.07,223.19,46.07z     M223.19,16.45c-3.9,0-7.08,3.18-7.08,7.08s3.18,7.08,7.08,7.08s7.08-3.18,7.08-7.08S227.09,16.45,223.19,16.45z"/></g></g></svg>